<svg xmlns="http://www.w3.org/2000/svg" width="32" height="32"><path fill="#4d5ae5" d="M32 16c0 4.418-1.791 8.418-4.686 11.314S20.419 32 16 32c-4.418 0-8.418-1.791-11.314-4.686S0 20.419 0 16c0-4.418 1.791-8.418 4.686-11.314S11.581 0 16 0c4.418 0 8.418 1.791 11.314 4.686S32 11.581 32 16z"/><path fill="#f4f4fd" d="M18.132 11.725h1.169V9.69a15.04 15.04 0 0 0-1.702-.09c-1.685 0-2.839 1.06-2.839 3.008V14.4h-1.859v2.275h1.859V22.4h2.279v-5.724h1.784l.283-2.275h-2.068v-1.567c0-.658.178-1.108 1.094-1.108z"/></svg>